<svg width="21" height="23" viewBox="0 0 21 23" fill="none" xmlns="http://www.w3.org/2000/svg">
<path d="M6.40773 0H1.82463L0 5.53622H2.18657V10L7 3.36553H4.59328L6.40773 0Z" transform="translate(6 13)" fill="#4E3C58"/>
<path d="M18.5283 6.54044C18.4954 6.41356 18.4569 6.28964 18.4134 6.16754V6.15251H18.4084C17.8209 4.52287 16.3276 3.36248 14.5727 3.36248C14.0796 3.36248 13.6088 3.45861 13.1706 3.62626C12.4592 1.51392 10.5438 0 8.29155 0C5.72093 0 3.58904 1.97202 3.18561 4.55612H3.18453V4.56182C3.13992 4.84929 3.11588 5.14406 3.11588 5.44452H3.18453V5.44817C3.16157 5.44771 3.13905 5.44452 3.11588 5.44452C1.39499 5.44452 0 6.91198 0 8.72226C0 10.5325 1.39499 12 3.11588 12H6.38573H8.24543H12.6013H14.4703H18.4134V11.9998C19.843 11.9932 21 10.7724 21 9.26715C21 7.8022 19.9043 6.60992 18.5283 6.54044Z" fill="#4E3C58"/>
</svg>
